<?xml version="1.0" encoding="utf-8"?>
<!-- Generator: Adobe Illustrator 16.0.3, SVG Export Plug-In . SVG Version: 6.00 Build 0)  -->
<!DOCTYPE svg PUBLIC "-//W3C//DTD SVG 1.1//EN" "http://www.w3.org/Graphics/SVG/1.1/DTD/svg11.dtd">
<svg version="1.1" xmlns="http://www.w3.org/2000/svg" xmlns:xlink="http://www.w3.org/1999/xlink" x="0px" y="0px"
	 width="219.146px" height="45.355px" viewBox="0 0 219.146 45.355" enable-background="new 0 0 219.146 45.355"
	 xml:space="preserve">
<g id="Bandeau">
</g>
<g id="Embleme">
</g>
<g id="Nom">
	<g>
		<g>
			<g>
				<linearGradient id="SVGID_1_" gradientUnits="userSpaceOnUse" x1="22.6768" y1="-1.1162" x2="22.6768" y2="46.761">
					<stop  offset="0" style="stop-color:#008053"/>
					<stop  offset="0.6" style="stop-color:#7FCBAE"/>
					<stop  offset="1" style="stop-color:#00A76D"/>
				</linearGradient>
				<rect fill="url(#SVGID_1_)" width="45.354" height="45.355"/>
				<linearGradient id="SVGID_2_" gradientUnits="userSpaceOnUse" x1="22.6055" y1="-11.2656" x2="22.6055" y2="42.5346">
					<stop  offset="0" style="stop-color:#00A76D"/>
					<stop  offset="0.3" style="stop-color:#7FCBAE"/>
					<stop  offset="0.55" style="stop-color:#00A76D"/>
					<stop  offset="0.8352" style="stop-color:#008053"/>
					<stop  offset="0.8691" style="stop-color:#008558"/>
					<stop  offset="0.9244" style="stop-color:#009264"/>
					<stop  offset="0.9938" style="stop-color:#00A97A"/>
					<stop  offset="1" style="stop-color:#00AD7D"/>
				</linearGradient>
				<path fill="url(#SVGID_2_)" d="M43.953,22.94c0,9.467,0.438,19.16,0.438,19.16c-0.018,1.087-0.715,1.782-1.592,1.782H3.543
					c-0.879,0-1.486-0.782-1.59-1.782c0,0-1.133-8.275-1.133-20.924c0-12.643,1.133-18.596,1.133-18.596
					c0.135-1.04,0.711-1.783,1.59-1.783h39.256c0.877,0,1.611,0.814,1.592,1.783C44.391,2.581,43.953,13.474,43.953,22.94z"/>
				<g>
					<g>
						<linearGradient id="SVGID_3_" gradientUnits="userSpaceOnUse" x1="31.2227" y1="39.5635" x2="31.2227" y2="4.748">
							<stop  offset="0" style="stop-color:#00B387"/>
							<stop  offset="1" style="stop-color:#00A76D"/>
						</linearGradient>
						<path fill="url(#SVGID_3_)" d="M35.219,12.248c-2.805,1.643-3.66,1.774-6.703,3.602l0.148-0.338
							c1.596-1.742,2.291-2.477,3.342-4.016c-2.813,0.152-6.889,0.488-9.807,1.131l0,0l0,0l0,0l0.154-0.313
							C25,11.027,29.91,9.749,32.414,9.418c-0.609-0.859-5.586-3.551-6.824-4.07l0,0l0,0l0,0l0.145-0.314
							c3.771,0.426,8.768,2.189,10.945,3.525c0.92-0.29,1.861-0.318,3.566-0.467c0,0-0.252,1.029-2.111,2.306l0,0l0,0l0,0
							c0.461,1.235-0.648,8.075-1.561,9.89l0,0l0,0l0,0C36.533,17.426,36.279,13.815,35.219,12.248z"/>
						<linearGradient id="SVGID_4_" gradientUnits="userSpaceOnUse" x1="9.6221" y1="39.5654" x2="9.6221" y2="4.7394">
							<stop  offset="0" style="stop-color:#00B387"/>
							<stop  offset="1" style="stop-color:#00A76D"/>
						</linearGradient>
						<path fill="url(#SVGID_4_)" d="M14.727,36.768l0.143-0.316c-1.49-0.578-2.979-1.034-4.186-2.17l0,0l0,0l0,0l0,0l0,0l0,0l0,0
							l0,0l0,0l0,0l0,0l0,0l0,0l0,0l0,0l0,0l0,0l0,0l0,0l0,0l0,0l0,0l0,0l0,0l0,0l0,0l0,0l0,0l0,0l0,0l0,0
							c0.381-1.055,0.814-1.881,1.521-2.926l0,0l0,0l0,0l0,0l0,0l0,0l0,0l0,0l0,0l0,0l0,0l0,0l0,0l0,0l0,0l0,0l0,0l0,0l0,0l0,0l0,0
							l0,0l0,0l0,0l0,0l0,0l0,0l0,0l0,0l0,0l0,0l0.15-0.32c-1.279,0.192-2.441,0.661-3.547,0.877l0,0l0,0l0,0l0,0l0,0l0,0l0,0l0,0
							l0,0l0,0l0,0l0,0l0,0l0,0l0,0l0,0l0,0l0,0l0,0l0,0l0,0l0,0l0,0l0,0l0,0l0,0l0,0l0,0l0,0l0,0l0,0
							c-0.873-1.534-1.213-3.633-1.652-5.631L7.012,26.6l0,0l0,0l0,0l0,0l0,0l0,0l0,0l0,0l0,0l0,0l0,0l0,0l0,0l0,0l0,0
							c-0.248,2.279-0.348,3.909-0.021,5.73l0,0l0,0l0,0l0,0l0,0l0,0l0,0l0,0l0,0l0,0l0,0l0,0l0,0l0,0l0,0l0,0l0,0l0,0l0,0l0,0l0,0
							l0,0l0,0l0,0l0,0l0,0l0,0l0,0l0,0l0,0l0,0c-0.922,0.256-1.73,0.292-2.473,0.608l-0.143,0.313l0,0l0,0l0,0l0,0l0,0l0,0l0,0l0,0
							l0,0l0,0l0,0l0,0l0,0l0,0l0,0l0,0l0,0l0,0l0,0l0,0l0,0l0,0l0,0l0,0l0,0l0,0l0,0l0,0l0,0l0,0l0,0
							c1.184,0.729,2.146,1.288,3.484,1.913l0,0l0,0l0,0l0,0l0,0l0,0l0,0l0,0l0,0l0,0l0,0l0,0l0,0l0,0l0,0l0,0l0,0l0,0l0,0l0,0l0,0
							l0,0l0,0l0,0l0,0l0,0l0,0l0,0l0,0l0,0l0,0c0.715,1.537,1.455,2.573,2.652,3.757l0,0l0,0l0,0l0,0l0,0l0,0l0,0l0,0l0,0l0,0l0,0
							l0,0l0,0l0,0l0,0l0,0l0,0l0,0l0,0l0,0l0,0l0,0l0,0l0,0l0,0l0,0l0,0l0,0l0,0l0,0l0,0l0.146-0.316
							c-0.215-0.874-0.494-1.596-0.389-2.551l0,0l0,0l0,0l0,0l0,0l0,0l0,0l0,0l0,0l0,0l0,0l0,0l0,0l0,0l0,0l0,0l0,0l0,0l0,0l0,0l0,0
							l0,0l0,0l0,0l0,0l0,0l0,0l0,0l0,0l0,0l0,0C11.756,36.487,13.031,36.716,14.727,36.768z"/>
						<linearGradient id="SVGID_5_" gradientUnits="userSpaceOnUse" x1="16.3516" y1="39.5576" x2="16.3516" y2="4.7529">
							<stop  offset="0" style="stop-color:#00B387"/>
							<stop  offset="1" style="stop-color:#00A76D"/>
						</linearGradient>
						<path fill="url(#SVGID_5_)" d="M18.861,13.988c0,0-0.598,1.063-1.078,2.473H17.67l0,0l0,0
							c3.492,0.471,6.791,1.885,7.619,2.373l-0.148,0.313l0,0l0,0l0,0l0,0l0,0l0,0l0,0c-3.625-0.637-5.533-0.565-6.885-0.444l0,0
							l0,0l0,0C16.91,18.832,16.635,19,16.635,19l0,0l0,0l0,0l0,0l0,0l0,0l0,0c-0.777,1.699-1.234,4.477-1.418,5.5l-0.146,0.318l0,0
							l0,0l0,0l0,0l0,0l0,0l0,0c-0.664-1.594-1.619-4.776-1.619-4.776l0,0l0,0l0,0l0,0l0,0l0,0l0,0
							c-1.826,0.979-6.037,4.933-6.037,4.933l0,0l0,0l0,0l0,0l0,0l0,0l0,0c2.322-4.629,4.668-6.744,4.668-6.744l0,0l0,0l0,0l0,0l0,0
							l0,0l0,0c-0.811-0.813-2.926-1.227-4.471-1.293l0,0l0,0l0,0l0.143-0.313c0.971-0.285,2.969-0.404,4.309-0.466l0,0l0,0l0,0l0,0
							l0,0l0,0l0,0c1.584-0.048,2.543,0.043,2.543,0.043l0,0l0,0l0,0C16.016,15.078,18.121,14.093,18.861,13.988z"/>
						<linearGradient id="SVGID_6_" gradientUnits="userSpaceOnUse" x1="22.1689" y1="39.5625" x2="22.1689" y2="4.7474">
							<stop  offset="0" style="stop-color:#00B387"/>
							<stop  offset="1" style="stop-color:#00A76D"/>
						</linearGradient>
						<path fill="url(#SVGID_6_)" d="M23.307,33.892c-0.732,0.993-1.359,1.775-2.166,2.684l0,0l0,0l0,0l0,0l0,0l0,0l0,0l0,0l0,0l0,0
							l0,0l0,0l0,0l0,0l0,0l0,0l0,0l0,0l0,0l0,0l0,0l0,0l0,0l0,0l0,0l0,0l0,0l0,0l0,0l0,0l0,0c-1.193,0.331-2.625,0.181-3.729,0.221
							l-0.145,0.316l0,0l0,0l0,0l0,0l0,0l0,0l0,0l0,0l0,0l0,0l0,0l0,0l0,0l0,0l0,0l0,0l0,0l0,0l0,0l0,0l0,0l0,0l0,0l0,0l0,0l0,0l0,0
							l0,0l0,0l0,0l0,0c0.83,0.427,1.643,0.688,2.512,0.867l0,0l0,0l0,0l0,0l0,0l0,0l0,0l0,0l0,0l0,0l0,0l0,0l0,0l0,0l0,0l0,0l0,0
							l0,0l0,0l0,0l0,0l0,0l0,0l0,0l0,0l0,0l0,0l0,0l0,0l0,0l0,0c-0.703,0.641-1.645,1.129-2.305,1.575l-0.146,0.312l0,0l0,0l0,0
							l0,0l0,0l0,0l0,0l0,0l0,0l0,0l0,0l0,0l0,0l0,0l0,0l0,0l0,0l0,0l0,0l0,0l0,0l0,0l0,0l0,0l0,0l0,0l0,0l0,0l0,0l0,0l0,0
							c1.416-0.335,3.281-0.937,4.672-1.757l0,0l0,0l0,0l0,0l0,0l0,0l0,0l0,0l0,0l0,0l0,0l0,0l0,0l0,0l0,0l0,0l0,0l0,0l0,0l0,0l0,0
							l0,0l0,0l0,0l0,0l0,0l0,0l0,0l0,0l0,0l0,0c0.723,0.032,1.398-0.016,1.895-0.114l0,0l0,0l0,0l0,0l0,0l0,0l0,0l0,0l0,0l0,0l0,0
							l0,0l0,0l0,0l0,0l0,0l0,0l0,0l0,0l0,0l0,0l0,0l0,0l0,0l0,0l0,0l0,0l0,0l0,0l0,0l0,0c0,0,0.148-0.323,0.148-0.315
							c-0.092-0.32-0.375-0.516-0.459-0.964l0,0l0,0l0,0l0,0l0,0l0,0l0,0l0,0l0,0l0,0l0,0l0,0l0,0l0,0l0,0l0,0l0,0l0,0l0,0l0,0l0,0
							l0,0l0,0l0,0l0,0l0,0l0,0l0,0l0,0l0,0l0,0c1.303-1.011,2.246-1.932,3.336-3.027l0,0l0,0l0,0l0,0l0,0l0,0l0,0l0,0l0,0l0,0l0,0
							l0,0l0,0l0,0l0,0l0,0l0,0l0,0l0,0l0,0l0,0l0,0l0,0l0,0l0,0l0,0l0,0l0,0l0,0l0,0l0,0l0.15-0.317
							c-1.076,0.742-2.383,1.763-3.641,2.359l0,0l0,0l0,0l0,0l0,0l0,0l0,0l0,0l0,0l0,0l0,0l0,0l0,0l0,0l0,0l0,0l0,0l0,0l0,0l0,0l0,0
							l0,0l0,0l0,0l0,0l0,0l0,0l0,0l0,0l0,0l0,0C23.377,35.112,23.338,34.587,23.307,33.892z"/>
					</g>
					<g>
						<path fill="#FFFFFF" d="M35.363,11.929c-2.799,1.646-3.656,1.784-6.699,3.605c1.771-1.923,2.389-2.741,3.484-4.351
							c-2.805,0.148-6.883,0.486-9.795,1.131l0,0l0,0l0,0c2.535-1.354,7.559-2.858,10.211-3.217
							c-0.615-0.849-5.592-3.545-6.83-4.064l0,0l0,0l0,0c3.939,0.307,8.758,1.779,11.092,3.207c0.92-0.287,1.875-0.301,3.584-0.453
							l0,0l0,0l0,0c-0.436,0.748-0.453,1.181-2.131,2.293l0,0l0,0l0,0c0.465,1.243-0.646,8.078-1.563,9.889l0,0l0,0l0,0
							C36.684,17.109,36.434,13.498,35.363,11.929z"/>
						<path fill="#FFFFFF" d="M14.869,36.451c-1.609-0.597-2.768-1.291-4.043-2.483l0,0l0,0l0,0l0,0l0,0l0,0l0,0l0,0l0,0l0,0l0,0
							l0,0l0,0l0,0l0,0l0,0l0,0l0,0l0,0l0,0l0,0l0,0l0,0l0,0l0,0l0,0l0,0l0,0l0,0l0,0l0,0c0.383-1.054,0.818-1.877,1.529-2.933l0,0
							l0,0l0,0l0,0l0,0l0,0l0,0l0,0l0,0l0,0l0,0l0,0l0,0l0,0l0,0l0,0l0,0l0,0l0,0l0,0l0,0l0,0l0,0l0,0l0,0l0,0l0,0l0,0l0,0l0,0l0,0
							c-1.309,0.195-2.271,0.343-3.398,0.556l0,0l0,0l0,0l0,0l0,0l0,0l0,0l0,0l0,0l0,0l0,0l0,0l0,0l0,0l0,0l0,0l0,0l0,0l0,0l0,0l0,0
							l0,0l0,0l0,0l0,0l0,0l0,0l0,0l0,0l0,0l0,0c-0.918-1.604-1.334-3.153-1.801-5.31l0,0l0,0l0,0l0,0l0,0l0,0l0,0l0,0l0,0l0,0l0,0
							l0,0l0,0l0,0l0,0c-0.25,2.285-0.344,3.917-0.021,5.735l0,0l0,0l0,0l0,0l0,0l0,0l0,0l0,0l0,0l0,0l0,0l0,0l0,0l0,0l0,0l0,0l0,0
							l0,0l0,0l0,0l0,0l0,0l0,0l0,0l0,0l0,0l0,0l0,0l0,0l0,0l0,0c-1.035,0.287-1.768,0.538-2.617,0.922l0,0l0,0l0,0l0,0l0,0l0,0l0,0
							l0,0l0,0l0,0l0,0l0,0l0,0l0,0l0,0l0,0l0,0l0,0l0,0l0,0l0,0l0,0l0,0l0,0l0,0l0,0l0,0l0,0l0,0l0,0l0,0
							c1.191,0.729,2.154,1.291,3.486,1.912l0,0l0,0l0,0l0,0l0,0l0,0l0,0l0,0l0,0l0,0l0,0l0,0l0,0l0,0l0,0l0,0l0,0l0,0l0,0l0,0l0,0
							l0,0l0,0l0,0l0,0l0,0l0,0l0,0l0,0l0,0l0,0c0.715,1.534,1.455,2.571,2.654,3.754l0,0l0,0l0,0l0,0l0,0l0,0l0,0l0,0l0,0l0,0l0,0
							l0,0l0,0l0,0l0,0l0,0l0,0l0,0l0,0l0,0l0,0l0,0l0,0l0,0l0,0l0,0l0,0l0,0l0,0l0,0l0,0c-0.281-1.008-0.355-1.809-0.24-2.866l0,0
							l0,0l0,0l0,0l0,0l0,0l0,0l0,0l0,0l0,0l0,0l0,0l0,0l0,0l0,0l0,0l0,0l0,0l0,0l0,0l0,0l0,0l0,0l0,0l0,0l0,0l0,0l0,0l0,0l0,0l0,0
							C11.906,36.172,13.18,36.399,14.869,36.451z"/>
						<path fill="#FFFFFF" d="M19.057,13.717L19.057,13.717L19.057,13.717L19.057,13.717L19.057,13.717
							c-0.502,0.65-1.082,1.863-1.24,2.427l0,0l0,0l0,0c4.146,0.562,7.473,2.69,7.473,2.69l0,0l0,0l0,0l0,0l0,0l0,0l0,0
							c-3.625-0.643-5.535-0.563-6.889-0.441l0,0l0,0l0,0c-1.344,0.127-1.619,0.285-1.619,0.285l0,0l0,0l0,0l0,0l0,0l0,0l0,0
							c-0.979,2.143-1.564,5.822-1.564,5.822l0,0l0,0l0,0l0,0l0,0l0,0l0,0c-0.66-1.591-1.613-4.775-1.613-4.775l0,0l0,0l0,0l0,0l0,0
							l0,0l0,0c-1.828,0.979-6.035,4.936-6.035,4.936l0,0l0,0l0,0l0,0l0,0l0,0l0,0c2.313-4.633,4.66-6.74,4.66-6.74l0,0l0,0l0,0l0,0
							l0,0l0,0l0,0c-0.809-0.818-2.926-1.227-4.475-1.295l0,0l0,0l0,0c0.803-0.328,2.867-0.712,4.451-0.785l0,0l0,0l0,0l0,0l0,0l0,0
							l0,0c1.588-0.045,2.547,0.045,2.547,0.045l0,0l0,0l0,0C16.168,14.768,18.316,13.826,19.057,13.717z"/>
						<path fill="#FFFFFF" d="M23.453,33.579c-0.73,0.993-1.361,1.772-2.172,2.68l0,0l0,0l0,0l0,0l0,0l0,0l0,0l0,0l0,0l0,0l0,0l0,0
							l0,0l0,0l0,0l0,0l0,0l0,0l0,0l0,0l0,0l0,0l0,0l0,0l0,0l0,0l0,0l0,0l0,0l0,0l0,0c-1.395,0.392-2.508,0.537-3.869,0.537l0,0l0,0
							l0,0l0,0l0,0l0,0l0,0l0,0l0,0l0,0l0,0l0,0l0,0l0,0l0,0l0,0l0,0l0,0l0,0l0,0l0,0l0,0l0,0l0,0l0,0l0,0l0,0l0,0l0,0l0,0l0,0
							c0.836,0.431,1.645,0.688,2.516,0.871l0,0l0,0l0,0l0,0l0,0l0,0l0,0l0,0l0,0l0,0l0,0l0,0l0,0l0,0l0,0l0,0l0,0l0,0l0,0l0,0l0,0
							l0,0l0,0l0,0l0,0l0,0l0,0l0,0l0,0l0,0l0,0c-0.871,0.788-1.607,1.35-2.453,1.888l0,0l0,0l0,0l0,0l0,0l0,0l0,0l0,0l0,0l0,0l0,0
							l0,0l0,0l0,0l0,0l0,0l0,0l0,0l0,0l0,0l0,0l0,0l0,0l0,0l0,0l0,0l0,0l0,0l0,0l0,0l0,0c1.418-0.336,3.281-0.938,4.668-1.758l0,0
							l0,0l0,0l0,0l0,0l0,0l0,0l0,0l0,0l0,0l0,0l0,0l0,0l0,0l0,0l0,0l0,0l0,0l0,0l0,0l0,0l0,0l0,0l0,0l0,0l0,0l0,0l0,0l0,0l0,0l0,0
							c0.725,0.028,1.402-0.019,1.9-0.117l0,0l0,0l0,0l0,0l0,0l0,0l0,0l0,0l0,0l0,0l0,0l0,0l0,0l0,0l0,0l0,0l0,0l0,0l0,0l0,0l0,0
							l0,0l0,0l0,0l0,0l0,0l0,0l0,0l0,0l0,0l0,0c-0.131-0.42-0.209-0.733-0.314-1.28l0,0l0,0l0,0l0,0l0,0l0,0l0,0l0,0l0,0l0,0l0,0
							l0,0l0,0l0,0l0,0l0,0l0,0l0,0l0,0l0,0l0,0l0,0l0,0l0,0l0,0l0,0l0,0l0,0l0,0l0,0l0,0c1.307-1.012,2.254-1.928,3.342-3.028l0,0
							l0,0l0,0l0,0l0,0l0,0l0,0l0,0l0,0l0,0l0,0l0,0l0,0l0,0l0,0l0,0l0,0l0,0l0,0l0,0l0,0l0,0l0,0l0,0l0,0l0,0l0,0l0,0l0,0l0,0l0,0
							c-1.158,0.808-2.156,1.41-3.494,2.043l0,0l0,0l0,0l0,0l0,0l0,0l0,0l0,0l0,0l0,0l0,0l0,0l0,0l0,0l0,0l0,0l0,0l0,0l0,0l0,0l0,0
							l0,0l0,0l0,0l0,0l0,0l0,0l0,0l0,0l0,0l0,0C23.518,34.797,23.484,34.274,23.453,33.579z"/>
					</g>
				</g>
			</g>
		</g>
		<g>
			<g>
				<g>
					<g>
						<g>
							<path fill="#FFFFFF" d="M56.764,14.961c0.095,1.647,0.191,5.815,0.191,7.335c0,1.4-0.003,6.088-0.246,8.109l-0.017,0.16
								h7.326c3.599,0,7.407-1.121,7.407-4.317c0-2.002-1.45-3.48-4.161-4.291c2.012-0.539,3.352-1.912,3.352-3.484
								c0-2.609-2.999-3.592-5.816-3.66h-8.078L56.764,14.961z M62.42,16.559c3.054,0.026,4.173,0.646,4.173,2.309
								c0,0.459-0.141,0.866-0.412,1.178c-0.584,0.703-1.723,1.066-3.177,0.975H62.93l-0.854,2.223h0.854
								c1.686-0.048,3.151,0.483,3.904,1.404c0.348,0.419,0.521,0.922,0.521,1.438c0,1.737-1.53,2.636-4.55,2.636
								c-0.509,0-1.337,0-1.85-0.018c-0.087-2.32-0.125-5.46-0.125-6.406c0-1.095,0.071-3.534,0.125-5.62
								C61.305,16.604,61.882,16.559,62.42,16.559z"/>
							<path fill="#FFFFFF" d="M88.33,14.813h-3.565l0.145,3.973c0.069,1.963,0.137,3.982,0.275,5.942l0,0l0,0
								c-0.23-0.614-0.445-0.93-1.528-2.507c-0.005-0.055-3.709-5.754-4.994-7.371l-0.038-0.037h-4.135v0.148
								c0.131,1.647,0.184,5.815,0.184,7.335c0,1.4,0,6.088-0.197,8.109l-0.035,0.16h3.685v-0.16
								c-0.209-3.844-0.209-7.724-0.209-11.487l0,0c0.129,0.456,0.292,0.848,0.873,1.709c0.046,0.102,6.396,9.343,6.703,9.872
								l0.032,0.066h2.952l-0.005-0.16c-0.225-2.021-0.243-6.709-0.243-8.109c0-1.52,0.102-5.688,0.197-7.335l0.046-0.148H88.33z"/>
							<path fill="#FFFFFF" d="M92.592,14.961c0.146,1.647,0.2,5.815,0.2,7.335c0,1.4,0,6.088-0.217,8.109v0.16h4.384l-0.019-0.16
								c-0.149-1.454-0.227-4.228-0.242-6.348c0.207,0.009,0.828,0.042,0.828,0.042l0.621,0.014c5.768,0,8.573-1.527,8.573-4.739
								c0-3.653-3.937-4.493-7.218-4.562h-6.911V14.961z M97.996,16.714c2.056-0.038,3.489,0.378,4.169,1.239
								c0.313,0.371,0.486,0.861,0.486,1.421c0,2.278-2.565,2.774-4.709,2.774L97.073,22.1c0,0-0.207-0.02-0.359-0.037
								c-0.016-0.525-0.016-1.221-0.016-2c0-0.99,0-2.168,0.047-3.258C97.047,16.766,97.504,16.714,97.996,16.714z"/>
							<path fill="#FFFFFF" d="M115.089,14.961c0.139,1.647,0.219,5.815,0.219,7.335c0,1.4-0.015,6.088-0.242,8.109v0.16h4.387
								l-0.025-0.16c-0.139-1.454-0.219-4.228-0.219-6.348c0.205,0.009,0.789,0.042,0.789,0.042l0.637,0.014
								c5.765,0,8.596-1.527,8.596-4.739c0-3.653-3.959-4.493-7.25-4.562h-6.891V14.961z M120.485,16.714
								c2.059-0.038,3.492,0.378,4.182,1.239c0.316,0.371,0.477,0.861,0.477,1.421c0,2.278-2.563,2.774-4.679,2.774l-0.868-0.049
								c0,0-0.23-0.02-0.363-0.037c-0.025-0.525-0.025-1.225-0.025-2c0-1.001,0-2.168,0.042-3.258
								C119.523,16.766,119.997,16.714,120.485,16.714z"/>
							<path fill="#FFFFFF" d="M135.093,14.813h-0.057l-0.031,0.08c-0.816,2.24-6.076,13.718-6.908,15.476l-0.069,0.197h3.734
								l0.031-0.088c0.329-1.08,0.771-2.297,1.251-3.597c0.15,0,3.117-0.046,3.117-0.046l2.578,0.02c0,0,0.416,0.026,0.541,0.026
								c0.664,1.693,1.174,2.969,1.396,3.618l0.043,0.066h4.325l-6.99-15.753h-0.086H135.093z M136.161,19.451
								c0.348,0.752,1.252,2.845,2.271,5.344c-0.158,0.008-0.354,0.008-0.354,0.008l-1.918,0.024c0,0-1.988-0.024-2.317-0.032
								C134.671,22.799,135.491,20.992,136.161,19.451z"/>
							<path fill="#FFFFFF" d="M146.805,14.961c0.126,1.647,0.188,5.815,0.188,7.335c0,1.4,0,6.088-0.24,8.109v0.16h4.412
								l-0.02-0.16c-0.232-2.035-0.25-6.709-0.25-8.109c0-1.095,0.034-3.534,0.145-5.508c0.335-0.022,0.844-0.074,1.19-0.074
								c2.04-0.038,3.481,0.383,4.157,1.239c0.322,0.371,0.469,0.871,0.469,1.421c0,1.819-1.697,2.741-3.279,2.824
								c-0.531,0.022-0.925-0.047-0.925-0.047l-0.309-0.052l0.169,0.289c1.566,2.282,3.908,6.239,4.875,8.11l0.029,0.066h4.711
								l-0.116-0.213c-0.192-0.266-3.262-4.783-4.565-6.712c0,0-0.059-0.057-0.114-0.117c2.417-0.725,3.583-2.076,3.583-4.149
								c0-3.628-3.935-4.491-7.256-4.562h-6.867L146.805,14.961z"/>
							<path fill="#FFFFFF" d="M168.364,14.813h-4.199l0.023,0.148c0.108,1.647,0.193,5.815,0.193,7.335
								c0,1.394-0.02,6.074-0.217,8.109l-0.017,0.16h4.354l-0.023-0.16c-0.166-2.035-0.219-6.716-0.219-8.109
								c0-1.52,0.104-5.688,0.219-7.335v-0.148H168.364z"/>
							<path fill="#FFFFFF" d="M172.473,14.961c0.126,1.647,0.203,5.815,0.203,7.335c0,1.4,0,6.088-0.222,8.109l-0.035,0.16h7.336
								c3.588,0,7.406-1.121,7.406-4.317c0-2.002-1.451-3.48-4.186-4.291c2.013-0.539,3.369-1.912,3.369-3.484
								c0-2.609-3.002-3.592-5.795-3.66h-8.096L172.473,14.961z M178.126,16.559L178.126,16.559
								c3.078,0.026,4.195,0.646,4.195,2.309c0,0.459-0.141,0.866-0.42,1.178c-0.555,0.703-1.74,1.066-3.182,0.975h-0.071
								l-0.847,2.223h0.847c1.692-0.048,3.144,0.483,3.896,1.404c0.367,0.419,0.541,0.922,0.541,1.438
								c0,1.737-1.537,2.636-4.572,2.636c-0.488,0-1.309,0-1.822-0.018c-0.127-2.32-0.127-5.46-0.127-6.406
								c0-1.095,0.041-3.534,0.127-5.62C177.022,16.604,177.598,16.559,178.126,16.559z"/>
							<path fill="#FFFFFF" d="M197.948,14.813h-2.949l-0.02,0.07c-0.881,2.385-6.437,14.468-6.902,15.47l-0.082,0.213h3.754
								l0.023-0.094c0.313-1.08,0.748-2.291,1.238-3.617c0.118,0,3.102-0.047,3.102-0.047l2.583,0.04c0,0,0.45,0.007,0.548,0.007
								c0.68,1.693,1.184,2.979,1.402,3.617l0.041,0.094h4.344l-6.988-15.753H197.948z M196.136,19.443
								c0.354,0.734,1.25,2.83,2.271,5.336c-0.156,0-0.346,0.016-0.346,0.016l-1.926,0.026c0,0-2.01-0.042-2.308-0.042
								C194.645,22.768,195.444,20.975,196.136,19.443z"/>
							<path fill="#FFFFFF" d="M206.259,18.886c0,2.767,2.771,3.882,5.227,4.899c1.91,0.761,3.91,1.563,3.91,2.882
								c0,0.399-0.08,0.735-0.302,0.972c-0.46,0.542-1.39,0.769-2.866,0.688c-1.465-0.06-3.113-0.521-4.97-1.375l-0.727-0.351v0.611
								v2.822l0.496,0.125l0.288,0.05c0.916,0.227,2.686,0.644,4.445,0.644c4.625,0,7.385-1.846,7.385-4.896
								c0-2.865-2.85-3.979-5.368-4.982c-1.856-0.752-3.776-1.498-3.776-2.727c0-0.354,0-1.387,2.396-1.387
								c1.767,0,3.484,0.719,4.459,1.092l0.889,0.371l-0.006-0.59v-2.854l-0.883-0.16c-0.899-0.182-2.398-0.479-3.943-0.479
								C208.923,14.241,206.259,16.125,206.259,18.886z"/>
						</g>
					</g>
				</g>
			</g>
		</g>
	</g>
</g>
<g id="embleme">
</g>
<g id="noms">
</g>
</svg>
